<svg xmlns="http://www.w3.org/2000/svg" width="256" height="256"><path fill="#1976D2" fill-opacity=".314" fill-rule="evenodd" d="M0 127.511v124.497l128.25-.254 128.25-.254.254-124.5.254-124.5-128.504.258L0 3.015zm.485-.011c0 68.75.119 96.728.265 62.172s.146-90.805 0-125S.485 58.75.485 127.5m95.153-118c-.391 1.02.054 1.5 1.393 1.5C98.115 11 99 10.325 99 9.5S98.373 8 97.607 8s-1.652.675-1.969 1.5m-5.45 4.239c.415 2.154 3.812 2.993 3.812.941 0-.806-.712-1.739-1.582-2.073-2.348-.901-2.597-.775-2.23 1.132m-4.375 5.944c.721.289 1.584.253 1.916-.079s-.258-.568-1.312-.525c-1.165.048-1.402.285-.604.604M97 34.5c0 .833.889 1.5 2 1.5s2-.667 2-1.5-.889-1.5-2-1.5-2 .667-2 1.5m47 0c0 .833.889 1.5 2 1.5s2-.667 2-1.5-.889-1.5-2-1.5-2 .667-2 1.5m40 94.427c0 1.431.642 2.073 2.073 2.073s1.97-.539 1.739-1.739c-.502-2.606-3.812-2.897-3.812-.334M42 131.5c0 .825.45 1.5 1 1.5s1-.675 1-1.5-.45-1.5-1-1.5-1 .675-1 1.5m40.813 76.183c.721.289 1.584.253 1.916-.079s-.258-.568-1.312-.525c-1.165.048-1.402.285-.604.604"/><path fill="#1976D2" fill-opacity=".245" fill-rule="evenodd" d="M157 4.883c0 1.043.893 2.117 2 2.407 1.197.313 2 1.364 2 2.616 0 1.903 1.966 2.731 5.25 2.212.412-.065.75.535.75 1.332 0 .798.661 1.82 1.468 2.272 1.225.686 1.515 5.415 1.75 28.551l.282 27.728h-3.25C164.305 72 164 72.282 164 75c0 2.762-.278 3-3.5 3-2.833 0-3.5-.381-3.5-2 0-1.956-.667-2-30.594-2-29.752 0-30.608.055-31.116 2-.339 1.294-1.364 2-2.907 2C90.402 78 90 77.494 90 75c0-2.514-.396-3-2.44-3-2.097 0-2.483-.526-2.75-3.75-.246-2.98-.721-3.75-2.31-3.749-1.933.001-2.018-.841-2.526-25L79.448 14.5l-.224 34.171L79 82.841l3 .659c2.773.609 3 .989 3 5.01 0 3.751.31 4.395 2.25 4.67 2.098.298 2.27.878 2.54 8.57.227 6.432.612 8.25 1.75 8.25.956 0 1.46 1.037 1.46 3 0 2.889.167 3 4.5 3 4.133 0 4.5-.204 4.5-2.5 0-1.556.567-2.5 1.5-2.5 1.085 0 1.5-1.115 1.5-4.031 0-2.661.51-4.227 1.5-4.607.825-.317 1.5-1.203 1.5-1.969S108.675 99 109.5 99s1.5-.675 1.5-1.5c0-1.272 2.475-1.5 16.278-1.5 15.071 0 16.405.149 18 2.011.996 1.164 1.722 3.668 1.722 5.941 0 2.162.462 4.215 1.027 4.564.564.349.943 1.163.842 1.809-.507 3.234 1.377 4.675 6.113 4.675 4.494 0 4.802-.172 5.366-2.989.329-1.644.338-3.665.021-4.492-.331-.863.105-1.764 1.027-2.118.961-.368 1.604-1.776 1.604-3.508 0-1.591.45-2.893 1-2.893s1-1.35 1-3c0-2.667.333-3 3-3 2.889 0 3-.167 3-4.5 0-4.133.204-4.5 2.5-4.5h2.5V12h-3.5c-2.833 0-3.5-.381-3.5-2 0-1.467-.667-2-2.5-2-2 0-2.5-.5-2.5-2.5 0-2.19-.433-2.5-3.5-2.5-2.761 0-3.5.398-3.5 1.883m-75.921 14.7c.048 1.165.285 1.402.604.605.289-.722.253-1.585-.079-1.917s-.568.258-.525 1.312M94 24.5c0 .825-.45 1.5-1 1.5s-1 .675-1 1.5-.562 1.387-1.25 1.25c-.913-.183-1.331 2.308-1.552 9.25-.363 11.402.328 16 2.406 16 .833 0 1.273.39.979.866-1.376 2.226 3.181 3.81 11.659 4.053 8.673.248 8.769.224 12-3.01l3.258-3.261V41.003c0-9.569-.299-11.945-1.679-13.324-.923-.924-2.16-1.679-2.75-1.679S114 25.325 114 24.5c0-1.233-1.778-1.5-10-1.5s-10 .267-10 1.5m47 0c0 .825-.482 1.5-1.071 1.5-2.967 0-3.799 2.93-4.064 14.303l-.269 11.58 3.773 3.558C142.938 58.807 143.515 59 150 59c4.155 0 7.378-.497 8.179-1.262.726-.694 2.559-1.809 4.071-2.478l2.75-1.217V29.8l-3.4-3.4c-3.34-3.34-3.553-3.4-12-3.4-6.978 0-8.6.283-8.6 1.5m-44.316 4.601c-.303 1.156-1.029 1.804-1.617 1.441C94.343 30.094 94 32.63 94 38.441c0 6.718.305 8.559 1.417 8.559.779 0 1.593.531 1.81 1.18.25.752 1.097.891 2.333.383 1.258-.516 1.501-.96.69-1.263-.687-.257-1.25-1.104-1.25-1.883S98.55 44 98 44s-1-1.575-1-3.5c0-2.851.376-3.5 2.031-3.5 2.701 0 3.767-2.944 1.631-4.505C98 30.549 98.685 30 103.778 30c5.982 0 8.209 2.229 8.254 8.261.017 2.332.692 5.113 1.5 6.18 1.329 1.758 1.468 1.171 1.468-6.218 0-6.843-.242-8.067-1.5-7.585-.917.352-1.5 0-1.5-.906 0-1.674-4.07-2.732-10.508-2.732-3.486 0-4.358.381-4.808 2.101m50.566-1.294c-2.894.21-4.25.768-4.25 1.75 0 .794-.675 1.443-1.5 1.443-1.192 0-1.5 1.454-1.5 7.083 0 5.219.329 6.976 1.25 6.673.688-.226 1.39-2.063 1.56-4.083.266-3.142.663-3.673 2.75-3.673 2.812 0 3.488-3.384.877-4.386-2.945-1.13-.321-2.614 4.622-2.614 4.322 0 4.941.258 4.941 2.059 0 1.132.45 1.781 1 1.441.621-.384 1 1.49 1 4.941 0 3.057-.398 5.559-.883 5.559-1.332 0-2.082 3.904-.891 4.639.57.353 1.456-.106 1.967-1.02.512-.913 1.352-1.4 1.868-1.081.554.342.939-2.524.939-6.979 0-10.574-2.344-12.577-13.75-11.752M15 103.5c0 1.578.565 2.5 1.531 2.5.843 0 1.791.675 2.107 1.5s1.203 1.5 1.969 1.5c.819 0 1.393 1.03 1.393 2.5 0 1.833.533 2.5 2 2.5 1.1 0 2 .45 2 1s1.35 1 3 1c2.397 0 3-.429 3-2.135 0-1.175 1.125-3.178 2.5-4.453 1.613-1.494 2.5-3.398 2.5-5.364 0-2.614-.369-3.048-2.594-3.048-1.752 0-2.763.649-3.116 2-.288 1.1-.921 2-1.407 2-.485 0-.883.9-.883 2 0 1.292-.667 2-1.883 2-1.043 0-2.117-.893-2.407-2-.287-1.1-1.24-2-2.116-2-.927 0-1.594-.837-1.594-2 0-1.556-.667-2-3-2-2.533 0-3 .389-3 2.5m196 .5c0 1.65.47 3 1.044 3s2.257 1.125 3.739 2.5c1.483 1.375 3.264 2.5 3.957 2.5s1.26.9 1.26 2c0 1.569.667 2 3.094 2 2.252 0 3.235-.544 3.616-2 .288-1.1.921-2 1.407-2 .485 0 .883-.482.883-1.071 0-.59.675-1.747 1.5-2.572s1.5-2.818 1.5-4.428c0-2.458-.402-2.929-2.5-2.929-1.876 0-2.5.526-2.5 2.107 0 1.401-.472 1.926-1.408 1.567-.907-.348-1.633.352-2.037 1.964-.741 2.949-2.916 2.649-3.375-.466-.175-1.195-.915-2.172-1.643-2.172-.727 0-1.582-.675-1.899-1.5-.336-.877-1.835-1.5-3.607-1.5-2.701 0-3.031.326-3.031 3m-171 5.5c0 .825-.705 1.5-1.566 1.5-1.119 0-1.476.786-1.25 2.75.248 2.16.906 2.818 3.066 3.066 1.888.218 2.75-.14 2.75-1.143 0-.802.619-1.697 1.376-1.987.875-.336 1.197-1.469.884-3.107-.366-1.913-1.109-2.579-2.877-2.579-1.452 0-2.383.586-2.383 1.5m199.308 7.201c2.747.711 1.884 5.701-1.058 6.119-1.238.175-2.25.963-2.25 1.75 0 .786-.852 1.43-1.893 1.43s-2.152.675-2.469 1.5-1.714 1.5-3.107 1.5c-1.583 0-2.531.562-2.531 1.5 0 .825-.675 1.5-1.5 1.5s-1.5.627-1.5 1.393-.71 1.666-1.578 1.999c-1.141.437-1.488 1.646-1.25 4.357.303 3.469.102 3.796-2.672 4.344-6.418 1.27-7.5 2.008-7.5 5.112 0 2.912.079 2.957 4 2.295l4-.676v10.505c0 5.777.395 10.654.878 10.838s1.07 4.466 1.305 9.517c.384 8.269.244 9.233-1.407 9.664-1.008.264-1.767.856-1.686 1.316.373 2.122-.217 3.336-1.621 3.336-.843 0-1.791.675-2.107 1.5s-1.165 1.5-1.886 1.5-1.498.563-1.728 1.25c-.589 1.755-24.922 1.727-25.508-.03-.224-.671-1.719-1.22-3.323-1.22-1.926 0-2.917-.51-2.917-1.5q0-1.5-3-1.5t-3-1.5c0-.833-.889-1.5-2-1.5-1.1 0-2-.417-2-.927 0-.509-.708-1.072-1.573-1.25-1.371-.282-1.595-3.393-1.75-24.323l-.177-24-3.151-3.25c-1.733-1.787-3.646-3.25-4.25-3.25s-1.099-.45-1.099-1c0-.643-10.167-1-28.5-1s-28.5.357-28.5 1c0 .55-1.35 1-3 1-1.922 0-3 .509-3 1.417 0 .779-.423 1.566-.939 1.75-1.431.508-1.845 45.725-.427 46.618.624.393 1.299 1.578 1.5 2.632.451 2.365 2.866 3.348 2.866 1.166 0-.87.675-1.583 1.5-1.583s1.5.45 1.5 1c0 .642 9.833 1 27.5 1s27.5-.358 27.5-1c0-.55.637-1 1.417-1 .779 0 1.679-.562 2-1.25.466-1 .7-1 1.166 0 .321.687 1.221 1.25 2 1.25.78 0 1.417.675 1.417 1.5 0 .872-.907 1.5-2.167 1.5-1.191 0-1.914.253-1.605.562s-.439 1.642-1.663 2.962c-2.174 2.346-2.631 2.405-20.145 2.596-15.748.171-34.677 1.308-28.777 1.728 1.179.083 2.405.835 2.725 1.669.656 1.709-2.678 7.84-3.705 6.813-.365-.365-.663-.112-.663.562s-.437.956-.971.626-1.257.544-1.608 1.941c-.633 2.522-2.421 3.57-2.421 1.419q-.002-1.12-1.25-.157c-1.87 1.445-9.819.527-11.923-1.377-1.013-.917-3.075-1.741-4.584-1.832a5440 5440 0 0 0-17.993-.979c-11.647-.62-15.25-1.128-15.25-2.148 0-.935-.855-1.164-2.857-.764-2.699.54-2.893.346-3.512-3.525-.411-2.572-1.185-4.096-2.079-4.096-.877 0-1.546-1.251-1.739-3.25l-.313-3.25-1.972 2.25c-2.421 2.762-3.528 2.859-3.528.309 0-1.068-.45-2.219-1-2.559s-1-1.941-1-3.559c0-2.274.453-2.941 2-2.941q2 0 2-2t2-2c1.933 0 2-.667 2-20 0-12.989-.359-20-1.025-20-.563 0-1.452-1.125-1.975-2.5-.667-1.756-1.702-2.5-3.475-2.5-1.578 0-2.525-.563-2.525-1.5 0-1.083-1.111-1.5-4-1.5s-4-.417-4-1.5c0-.833-.889-1.5-2-1.5-1.1 0-2-.576-2-1.281 0-1.297-5.454-4.113-7.75-4.002-.687.034-1.25-.789-1.25-1.828S9.55 120 9 120c-1.297 0-5 3.703-5 5 0 .55-.675 1-1.5 1-1.218 0-1.52 1.741-1.605 9.25-.058 5.088-.277 18.312-.486 29.387-.366 19.411-.308 20.156 1.606 20.657C3.701 185.735 4 186.668 4 191.5c0 4.846.296 5.765 2 6.21 1.14.298 2 1.364 2 2.478 0 2.116 2.201 4.812 3.929 4.812.589 0 1.071.675 1.071 1.5s.627 1.5 1.393 1.5 1.652.675 1.969 1.5c.316.825 1.489 1.5 2.607 1.5 1.139 0 2.031.659 2.031 1.5 0 1.083 1.111 1.5 4 1.5s4 .417 4 1.5c0 1.111 1.167 1.5 4.5 1.5 4.317 0 4.5.12 4.5 2.953 0 2.379.665 3.269 3.423 4.577 1.882.894 3.668 2.265 3.968 3.047.325.846 1.931 1.423 3.961 1.423 2.574 0 3.544.493 3.938 2 .436 1.67 1.364 2 5.616 2 4.721 0 5.094.177 5.094 2.418 0 4.15 1.054 5.582 4.107 5.582 2.603 0 2.893-.329 2.893-3.282v-3.282l50-.288 50-.289v4.521c0 3.17.495 4.798 1.658 5.449.912.51 1.737 1.995 1.833 3.299.098 1.341.912 2.515 1.871 2.701 1.528.296 1.63-.48 1.024-7.75l-.674-8.079h9.028c8.017 0 9.082-.212 9.522-1.894.293-1.121 1.769-2.173 3.617-2.579 2.393-.526 3.121-1.223 3.121-2.99 0-2.752 2.329-3.571 7.996-2.811l4.004.537v-8.158l5.25-.303c3.864-.222 5.251-.698 5.253-1.802.002-1.131 1.018-1.438 4.133-1.25 3.407.207 4.222-.1 4.654-1.75.353-1.351 1.364-2 3.116-2 1.639 0 2.594-.552 2.594-1.5 0-.825.675-1.5 1.5-1.5s1.5-.45 1.5-1 .9-1 2-1c1.309 0 2-.667 2-1.93 0-1.241.804-2.045 2.25-2.25 2.07-.294 2.25-.841 2.25-6.82 0-6.173.126-6.518 2.5-6.851 1.375-.193 2.826-.868 3.225-1.5s.559-10.149.355-21.149c-.203-11-.417-23.262-.475-27.25-.083-5.731-.419-7.25-1.605-7.25-1.369 0-1.893-1.406-1.769-4.75.026-.687-.578-1.25-1.342-1.25s-1.389-.675-1.389-1.5c0-.933-.944-1.5-2.5-1.5-1.833 0-2.5-.533-2.5-2 0-1.665-.628-1.981-3.75-1.884-2.062.064-2.936.327-1.942.585M71.667 134.667C69.781 136.552 71.229 138 75 138c3.333 0 4-.333 4-2 0-1.6-.667-2-3.333-2-1.834 0-3.634.3-4 .667M10 143c0 1.467.667 2 2.5 2s2.5-.533 2.5-2-.667-2-2.5-2-2.5.533-2.5 2m165.667.667c-.367.366-.667 1.681-.667 2.92 0 1.707.752 2.419 3.099 2.935 3.817.838 5.218-.411 4.348-3.877-.515-2.05-1.276-2.645-3.389-2.645-1.498 0-3.025.3-3.391.667M116 146.135c0 .625-1.125 2.178-2.5 3.453s-2.5 2.75-2.5 3.281c0 .53-.532 1.142-1.183 1.359-.751.25-1.343 3.748-1.622 9.583-.382 7.99-.228 9.189 1.183 9.189.892 0 1.622.471 1.622 1.048 0 .576 1.125 2.09 2.5 3.364s2.5 2.769 2.5 3.322 1.688 1.283 3.75 1.624c8.382 1.386 19.25.263 19.25-1.989 0-.753.675-1.369 1.5-1.369s1.5-.675 1.5-1.5.675-1.5 1.5-1.5 1.5-.675 1.5-1.5.45-1.5 1-1.5c.596 0 1-3.833 1-9.5 0-7.778-.272-9.5-1.5-9.5-.825 0-1.5-.627-1.5-1.393s-.704-1.663-1.563-1.993c-.86-.33-1.284-1.053-.941-1.607.342-.554-.031-1.007-.83-1.007s-1.711-.675-2.028-1.5c-.463-1.208-2.723-1.5-11.607-1.5-7.564 0-11.031.357-11.031 1.135m-.25 7.803c-2.486 2.514-2.75 3.47-2.75 9.953 0 5.452.36 7.31 1.5 7.747.825.317 1.5 1.203 1.5 1.969s.675 1.393 1.5 1.393 1.5.675 1.5 1.5c0 1.216 1.615 1.5 8.531 1.5 6.661 0 8.658-.329 9.107-1.5.317-.825 1.09-1.504 1.719-1.508 2.056-.014 3.644-5.263 3.611-11.941-.031-6.414-1.416-10.051-3.828-10.051-.627 0-1.14-.45-1.14-1 0-.6-3.698-.969-9.25-.922-8.742.074-9.401.231-12 2.86M.389 166.5c.001 7.15.161 9.944.353 6.208.193-3.735.192-9.585-.003-13-.194-3.414-.352-.358-.35 6.792m81.176-10.605c-.305.493.119 1.153.941 1.469.907.348 1.494-.003 1.494-.895 0-1.618-1.563-1.986-2.435-.574M57.18 169.25c.245 1.725 1.079 2.323 3.57 2.563 2.903.28 3.25.04 3.25-2.25 0-2.272-.405-2.563-3.57-2.563-3.129 0-3.53.277-3.25 2.25M177 170.5c0 2.19.433 2.5 3.5 2.5s3.5-.31 3.5-2.5-.433-2.5-3.5-2.5-3.5.31-3.5 2.5m10.464 12.37c-.255.255-.464 1.449-.464 2.653 0 1.882.526 2.174 3.75 2.083 3.088-.087 3.806-.503 4.07-2.356.175-1.238-.05-2.308-.5-2.379-2.546-.4-6.456-.401-6.856-.001M69 184.918c0 2.632 1.459 4.082 4.107 4.082 2.419 0 2.893-.409 2.893-2.5 0-2.19-.433-2.5-3.5-2.5-1.925 0-3.5.413-3.5.918M79 203.5c0 3.333.167 3.5 3.5 3.5s3.5-.167 3.5-3.5-.167-3.5-3.5-3.5-3.5.167-3.5 3.5m22.75 11.247c6.737.173 17.763.173 24.5 0 6.738-.173 1.225-.315-12.25-.315s-18.987.142-12.25.315M76.332 244.5c.098 6.477.356 7.5 1.891 7.5.977 0 1.777-.597 1.777-1.326s1.125-2.382 2.5-3.674c3.17-2.978 3.484-8 .5-8-1.1 0-2-.45-2-1s-1.076-1-2.391-1c-2.32 0-2.388.226-2.277 7.5m110.418-5.751c-2.027.461-2.425 4.849-.5 5.52 2.188.764 3.75-.41 3.75-2.817 0-2.653-.745-3.272-3.25-2.703"/><path fill="#1976D2" fill-opacity=".515" fill-rule="evenodd" d="M94.25 25.496c-.687.781-1.25 1.889-1.25 2.462S92.325 29 91.5 29c-1.233 0-1.5 1.778-1.5 10 0 5.5.374 10 .831 10s1.433 1.125 2.169 2.5c1.288 2.406 1.706 2.5 11.169 2.5 5.887 0 9.831-.401 9.831-1 0-.55.675-1 1.5-1s1.5-.675 1.5-1.5.45-1.5 1-1.5c.597 0 1-3.859 1-9.577 0-9.252-.099-9.676-2.923-12.5-2.797-2.797-3.304-2.921-11.75-2.885-6.332.027-9.18.439-10.077 1.458M142 25c0 .55-.675 1-1.5 1s-1.5.675-1.5 1.5-.675 1.5-1.5 1.5c-1.228 0-1.5 1.722-1.5 9.5 0 8.167.281 9.781 2 11.5 1.1 1.1 2.45 2 3 2s1 .45 1 1c0 .588 3.5 1 8.5 1s8.5-.412 8.5-1c0-.55.675-1 1.5-1s1.5-.675 1.5-1.5.45-1.5 1-1.5c.597 0 1-3.857 1-9.571 0-9.455-.94-12.429-3.929-12.429-.589 0-1.071-.675-1.071-1.5 0-1.216-1.611-1.5-8.5-1.5-5 0-8.5.412-8.5 1m-46 3.5c0 .825-.675 1.5-1.5 1.5-1.124 0-1.497 1.19-1.489 4.75.017 7.284 1.079 12.25 2.62 12.25.753 0 1.369.863 1.369 1.918 0 1.681.884 1.959 7.161 2.25 6.148.285 7.226.084 7.617-1.418.25-.962 1.205-1.75 2.121-1.75 2.027 0 2.442-3.101 1.571-11.75-.447-4.438-1.041-6.25-2.05-6.25-.781 0-1.42-.675-1.42-1.5 0-1.208-1.556-1.5-8-1.5s-8 .292-8 1.5m47-.5c-.825.533-1.05 1.005-.5 1.048s-.012.486-1.25.983c-2.087.839-2.25 1.523-2.25 9.437 0 4.692.418 8.532.929 8.532.51 0 1.569.64 2.351 1.423.854.853 3.892 1.524 7.587 1.675 5.726.234 6.377.032 9.193-2.848 2.891-2.957 3.017-3.439 2.735-10.425-.169-4.189-.723-7.244-1.295-7.135-.55.105-1.323-.682-1.718-1.75-.614-1.661-1.692-1.938-7.5-1.925-3.73.009-7.457.452-8.282.985m-42.75 3.689c1.06.277 1.75 1.414 1.75 2.884 0 1.922-.52 2.427-2.5 2.427-2.19 0-2.5.433-2.5 3.5 0 2.444.452 3.5 1.5 3.5.825 0 1.5.675 1.5 1.5 0 2.419 8.115 2.015 10.278-.511C112.553 42.331 112.726 33 110.5 33c-.825 0-1.5-.45-1.5-1 0-.554-2.339-.948-5.25-.884-2.888.064-4.463.322-3.5.573m46.5-.027c.688.278 1.25 1.592 1.25 2.921 0 1.911-.523 2.417-2.5 2.417-2.19 0-2.5.433-2.5 3.5 0 1.925.45 3.5 1 3.5s1 .675 1 1.5c0 2.452 9.094 2.039 11.278-.511C158.151 42.8 158.73 34 157 34c-.55 0-1-.675-1-1.5 0-1.153-1.215-1.482-5.25-1.421-2.887.043-4.687.306-4 .583M11 136.5c0 .825.477 1.5 1.059 1.5s.781-.45.441-1-.179-1 .358-1 1.202.563 1.48 1.25c.301.747.536.545.583-.5.05-1.11-.653-1.75-1.921-1.75-1.111 0-2 .667-2 1.5m91 3.5c0 .55-.675 1-1.5 1s-1.5.675-1.5 1.5-.684 1.5-1.52 1.5c-1.321 0-1.485 2.731-1.25 20.75.172 13.251.631 20.638 1.27 20.441.55-.17 1.245.73 1.545 2l.544 2.309 26.766.266 26.766.267 2.939-2.94 2.94-2.939v-20.077c0-17.18-.216-20.077-1.5-20.077-.825 0-1.5-.482-1.5-1.071 0-.59-.643-1.715-1.429-2.5-1.163-1.164-6.171-1.429-27-1.429-16.381 0-25.571.359-25.571 1m77 4.729c.825.314 1.831 1.066 2.235 1.671.453.678.74.429.75-.65.01-1.176-.723-1.724-2.235-1.671q-2.254.078-.75.65m-65.25 3.255c-1.513 1.589-2.75 3.592-2.75 4.452s-.675 1.564-1.5 1.564c-1.228 0-1.5 1.722-1.5 9.5 0 5.667.404 9.5 1 9.5.55 0 1 .503 1 1.118 0 .614 1.769 2.887 3.932 5.049l3.931 3.932 10.483-.168c9.536-.152 10.529-.346 11.001-2.15.285-1.09.999-1.685 1.586-1.323s1.067-.042 1.067-.899.675-1.559 1.5-1.559 1.5-.863 1.5-1.917.516-2.088 1.147-2.299c1.629-.543 1.681-18.008.056-18.55-.662-.22-1.203-1.052-1.203-1.849s-.675-1.707-1.5-2.023-1.5-1.203-1.5-1.969-.675-1.393-1.5-1.393-1.5-.45-1.5-1c0-.61-4.385-.981-11.25-.952-11.075.048-11.293.093-14 2.936m3 6c-2.468 2.592-2.75 3.613-2.75 9.952 0 4.043.428 7.064 1 7.064.55 0 1 .575 1 1.278 0 3.2 3.895 4.722 12.083 4.722 8.29 0 10.917-1.066 10.917-4.429 0-.864.563-1.572 1.25-1.573.884-.001 1.25-2.114 1.25-7.222 0-6.507-.268-7.496-2.716-9.999-2.548-2.604-3.232-2.774-11-2.729-7.803.046-8.444.216-11.034 2.936M20 157c0 1.556.667 2 3 2s3-.444 3-2-.667-2-3-2-3 .444-3 2m60 46.5c0 2.084.476 2.5 2.861 2.5 2.513 0 2.803-.304 2.384-2.5-.351-1.834-1.113-2.5-2.862-2.5-1.875 0-2.383.533-2.383 2.5m1 0c0 .825.177 1.5.393 1.5s.652-.675.969-1.5.139-1.5-.393-1.5c-.533 0-.969.675-.969 1.5m-43 9.167c0 3.127-.211 3.333-3.417 3.333-1.879 0-3.643-.562-3.921-1.25-.301-.747-.536-.545-.583.5-.063 1.388.748 1.75 3.921 1.75 3.778 0 4 .167 4 3 0 2.533.389 3 2.5 3 1.375 0 2.5.45 2.5 1s.675 1 1.5 1c.833 0 1.5.889 1.5 2 0 1.619.667 2 3.5 2 2.444 0 3.5.452 3.5 1.5 0 1.107 1.158 1.5 4.418 1.5 6.62 0 7.582.648 7.582 5.107 0 3.486.261 3.893 2.5 3.893 2.19 0 2.5-.433 2.5-3.5V234h101l.014 2.25c.025 4.23 1.184 6.75 3.103 6.75 1.565 0 1.883-.76 1.883-4.5V234h9.5c8.833 0 9.5-.14 9.5-2 0-1.152.667-2 1.571-2 2.021 0 4.429-2.408 4.429-4.429 0-.864.675-1.571 1.5-1.571s1.5-.465 1.5-1.034c0-.657 1.745-.803 4.78-.401l4.78.634-.03-3.783-.03-3.783-83.286-.067c-61.589-.049-83.473-.365-84-1.215-.393-.632-1.839-1.307-3.214-1.501-1.53-.215-2.457-.965-2.389-1.934.061-.87-.501-1.583-1.25-1.583-.876 0-1.361 1.189-1.361 3.334m2.75 1.995c.688.278 1.813.278 2.5 0 .688-.277.125-.504-1.25-.504s-1.937.227-1.25.504M153 227.5c0 .825.477 1.5 1.059 1.5s.805-.412.494-.915 0-1.142.691-1.421c.758-.305.562-.537-.494-.585-.963-.043-1.75.596-1.75 1.421m-76 16c0 6.125.878 6.713 4.545 3.045 3.16-3.159 3.262-7.095.205-7.915-4.43-1.187-4.75-.859-4.75 4.87"/></svg>