<svg xmlns="http://www.w3.org/2000/svg" width="256" height="256"><path fill="#1976D2" fill-opacity=".016" fill-rule="evenodd" d="M0 128.004v128.004l128.25-.254 128.25-.254.254-127.75L257.008 0H0zm.485.496c0 70.4.119 99.053.265 63.672s.146-92.98 0-128S.485 58.1.485 128.5"/><path fill="#1976D2" fill-opacity=".45" fill-rule="evenodd" d="M0 31.5V42h117v43H21v21H0v107h21v21h86v-21h42v21h86v-20.932l10.75-.284 10.75-.284.261-53.5.26-53.5-11.01.312-11.011.313V85h-96V42h-21V21H0zm.466 128c0 29.7.128 41.706.283 26.679.156-15.026.156-39.326 0-54S.466 129.8.466 159.5"/><path fill="#1976D2" fill-opacity=".283" fill-rule="evenodd" d="M0 31.5V42h117v43h22.04l-.27-21.25-.27-21.25-10.75-.284-10.75-.284V21H0zm64 105.966v10.466l-10.75.284-10.75.284v22l10.75.284 10.75.284V192h22l-.001-10.75-.002-10.75H106.5v-22H85.997l.002-10.75L86 127H64zm85.416-9.549c-.229.229-.416 5.066-.416 10.75V149h22.068l-.284-10.577-.284-10.577-10.334-.173c-5.683-.095-10.521.015-10.75.244M192 138v11h22v-22h-22zm-43 43v11h22v-22h-22zm43-.564v10.435l10.502.315 10.502.314-.002-10.75L213 170h-21z"/><path fill="#1976D2" fill-opacity=".778" fill-rule="evenodd" d="M0 31.5V42h117V21H0zm118 32.08V85h20V42.16h-20zM64 138.5V149H43v21h21v21h21v-21h22v-21H85v-21H64zm128 0V149h21v-21h-21zm-42.301 32.134c-.384.385-.699 5.124-.699 10.533V191h22.07l-.285-10.25-.285-10.25-10.051-.283c-5.527-.155-10.365.032-10.75.417"/></svg>